<?xml version="1.0" standalone="no"?>
<!DOCTYPE svg PUBLIC "-//W3C//DTD SVG 20010904//EN"
 "http://www.w3.org/TR/2001/REC-SVG-20010904/DTD/svg10.dtd">
<svg version="1.0" xmlns="http://www.w3.org/2000/svg"
 width="404.000000pt" height="404.000000pt" viewBox="0 0 404.000000 404.000000"
 preserveAspectRatio="xMidYMid meet">
<metadata>
Created by potrace 1.14, written by Peter Selinger 2001-2017
</metadata>
<g transform="translate(0.000000,404.000000) scale(0.100000,-0.100000)"
fill="#000000" stroke="none">
<path d="M1084 3578 c-101 -34 -167 -94 -216 -197 -98 -203 17 -448 237 -506
230 -61 451 100 461 336 5 121 -31 208 -118 292 -93 88 -238 118 -364 75z"/>
<path d="M1719 3562 c-7 -3 -22 -11 -31 -20 -16 -14 -18 -41 -18 -311 1 -248
3 -299 16 -316 14 -19 27 -20 312 -21 295 0 297 0 319 22 23 23 23 25 23 317
0 286 -1 294 -21 313 -20 18 -40 19 -303 20 -155 0 -289 -2 -297 -4z"/>
<path d="M2507 3553 c-14 -7 -27 -18 -29 -25 -3 -7 -4 -144 -4 -305 1 -267 3
-294 19 -310 16 -16 43 -18 318 -18 l300 0 17 23 c15 20 17 53 17 305 -1 155
-5 292 -9 304 -4 12 -17 25 -29 30 -12 4 -147 8 -299 8 -207 1 -283 -2 -301
-12z"/>
<path d="M924 2762 c-12 -2 -30 -12 -40 -23 -17 -19 -18 -44 -19 -312 -1 -289
0 -292 22 -314 22 -23 25 -23 311 -23 270 0 291 1 313 19 l24 19 2 284 c1 175
-3 293 -9 311 -7 17 -21 30 -37 34 -26 6 -526 11 -567 5z"/>
<path d="M1728 2762 c-56 -7 -58 -19 -58 -339 0 -288 0 -293 22 -313 21 -19
34 -20 313 -20 279 0 292 1 313 20 22 20 22 25 22 315 0 282 -1 296 -20 315
-11 11 -26 20 -32 21 -36 3 -537 4 -560 1z"/>
<path d="M904 1950 c-12 -5 -26 -14 -30 -22 -12 -18 -12 -578 0 -605 5 -13 18
-26 30 -29 22 -8 544 -12 583 -6 46 8 51 45 49 349 -1 257 -3 284 -19 300 -16
16 -44 18 -305 20 -158 1 -297 -3 -308 -7z"/>
<path d="M1691 1939 c-20 -19 -21 -29 -21 -313 0 -271 1 -296 19 -317 l18 -23
298 0 298 0 18 23 c18 21 19 46 19 315 0 291 0 293 -22 313 -22 20 -33 21
-315 21 -274 0 -293 -1 -312 -19z"/>
<path d="M2498 1940 c-23 -18 -23 -19 -24 -314 -1 -277 0 -298 18 -318 18 -22
24 -22 314 -22 291 0 295 0 317 22 22 22 22 26 22 318 0 292 -1 296 -22 314
-20 16 -50 18 -312 18 -268 1 -292 -1 -313 -18z"/>
<path d="M901 1146 c-11 -5 -24 -20 -28 -35 -5 -14 -9 -154 -8 -310 1 -277 1
-284 22 -301 19 -15 52 -17 313 -17 264 0 294 2 313 18 22 17 22 22 23 313 1
276 0 297 -18 316 -10 11 -22 20 -26 21 -45 6 -577 2 -591 -5z"/>
<path d="M1724 1151 c-10 -1 -27 -10 -36 -19 -16 -14 -18 -42 -18 -312 0 -279
1 -297 19 -317 19 -20 29 -21 311 -20 272 0 293 1 316 19 l24 19 0 294 c0 270
-1 295 -18 316 -19 22 -20 22 -299 23 -154 1 -288 -1 -299 -3z"/>
</g>
</svg>
